<svg xmlns="http://www.w3.org/2000/svg" preserveAspectRatio="xMidYMid slice" viewBox="0 0 1200 720"><defs><linearGradient id="grass" x1="0" x2="0" y1="0" y2="1"><stop offset="0%" stop-color="#7fbf34"/><stop offset="100%" stop-color="#6ca529"/></linearGradient><pattern id="speckle" width="36" height="36" patternUnits="userSpaceOnUse"><circle cx="6" cy="8" r="2" fill="#6e9527" opacity=".3"/><circle cx="28" cy="22" r="1.8" fill="#5b8420" opacity=".28"/><circle cx="18" cy="30" r="1.4" fill="#7d9f2f" opacity=".26"/><circle cx="30" cy="10" r="1.6" fill="#6a8f26" opacity=".3"/></pattern><filter id="softShadow" width="140%" height="140%" x="-20%" y="-20%"><feDropShadow dx="0" dy="10" flood-color="#6a501f" flood-opacity=".35" stdDeviation="18"/></filter></defs><rect width="1200" height="720" fill="url(#grass)"/><rect width="1200" height="720" fill="url(#speckle)"/><g stroke-linecap="round" stroke-linejoin="round" filter="url(#softShadow)"><path stroke="#c09b43" stroke-width="140" d="M-80 270 Q 180 220 320 270 T 640 250 T 1180 330" opacity=".9"/><path stroke="#e6c363" stroke-width="110" d="M-60 270 Q 180 230 320 280 T 640 260 T 1180 340"/><path stroke="#c09b43" stroke-width="140" d="M320 280 Q 350 360 480 380 T 720 360" opacity=".9"/><path stroke="#e6c363" stroke-width="110" d="M330 290 Q 350 350 480 370 T 720 360"/></g><g fill="#4a7a1f" opacity=".85"><ellipse cx="180" cy="420" rx="40" ry="26"/><ellipse cx="540" cy="150" rx="32" ry="22"/><ellipse cx="960" cy="210" rx="34" ry="24"/><ellipse cx="1020" cy="520" rx="46" ry="28"/><ellipse cx="700" cy="480" rx="38" ry="24"/></g><g fill="#578c24" opacity=".95"><ellipse cx="200" cy="430" rx="18" ry="14"/><ellipse cx="560" cy="160" rx="14" ry="12"/><ellipse cx="980" cy="220" rx="16" ry="13"/><ellipse cx="1040" cy="520" rx="20" ry="16"/><ellipse cx="720" cy="490" rx="16" ry="13"/></g><g fill="#8e7340" opacity=".9"><ellipse cx="260" cy="210" rx="18" ry="12"/><ellipse cx="440" cy="430" rx="16" ry="10"/><ellipse cx="860" cy="360" rx="18" ry="12"/><ellipse cx="1060" cy="380" rx="14" ry="10"/></g><g fill="#d9aa58" stroke="#805a1c" stroke-width="4"><rect width="52" height="42" x="190" y="240" rx="10"/><rect width="56" height="46" x="870" y="300" rx="12"/><rect width="48" height="38" x="640" y="420" rx="10"/></g><g fill="#2f4f14" opacity=".6"><circle cx="220" cy="210" r="4"/><circle cx="350" cy="190" r="3.5"/><circle cx="760" cy="230" r="3.5"/><circle cx="1020" cy="300" r="4"/><circle cx="840" cy="520" r="3.5"/><circle cx="520" cy="520" r="4"/></g></svg>