<svg xmlns="http://www.w3.org/2000/svg" viewBox="0 0 1200 720" preserveAspectRatio="xMidYMid slice">
  <defs>
    <linearGradient id="grass" x1="0" y1="0" x2="0" y2="1">
      <stop offset="0%" stop-color="#7fbf34" />
      <stop offset="100%" stop-color="#6ca529" />
    </linearGradient>
    <pattern id="speckle" width="36" height="36" patternUnits="userSpaceOnUse">
      <circle cx="6" cy="8" r="2" fill="#6e9527" opacity="0.3" />
      <circle cx="28" cy="22" r="1.8" fill="#5b8420" opacity="0.28" />
      <circle cx="18" cy="30" r="1.4" fill="#7d9f2f" opacity="0.26" />
      <circle cx="30" cy="10" r="1.6" fill="#6a8f26" opacity="0.3" />
    </pattern>
    <filter id="softShadow" x="-20%" y="-20%" width="140%" height="140%">
      <feDropShadow dx="0" dy="10" stdDeviation="18" flood-color="#6a501f" flood-opacity="0.35" />
    </filter>
  </defs>

  <rect fill="url(#grass)" width="1200" height="720" />
  <rect fill="url(#speckle)" width="1200" height="720" />

  <g stroke-linecap="round" stroke-linejoin="round" filter="url(#softShadow)">
    <path d="M-80 270 Q 180 220 320 270 T 640 250 T 1180 330" stroke="#c09b43" stroke-width="140" opacity="0.9" />
    <path d="M-60 270 Q 180 230 320 280 T 640 260 T 1180 340" stroke="#e6c363" stroke-width="110" />
    <path d="M320 280 Q 350 360 480 380 T 720 360" stroke="#c09b43" stroke-width="140" opacity="0.9" />
    <path d="M330 290 Q 350 350 480 370 T 720 360" stroke="#e6c363" stroke-width="110" />
  </g>

  <g fill="#4a7a1f" opacity="0.85">
    <ellipse cx="180" cy="420" rx="40" ry="26" />
    <ellipse cx="540" cy="150" rx="32" ry="22" />
    <ellipse cx="960" cy="210" rx="34" ry="24" />
    <ellipse cx="1020" cy="520" rx="46" ry="28" />
    <ellipse cx="700" cy="480" rx="38" ry="24" />
  </g>

  <g fill="#578c24" opacity="0.95">
    <ellipse cx="200" cy="430" rx="18" ry="14" />
    <ellipse cx="560" cy="160" rx="14" ry="12" />
    <ellipse cx="980" cy="220" rx="16" ry="13" />
    <ellipse cx="1040" cy="520" rx="20" ry="16" />
    <ellipse cx="720" cy="490" rx="16" ry="13" />
  </g>

  <g fill="#8e7340" opacity="0.9">
    <ellipse cx="260" cy="210" rx="18" ry="12" />
    <ellipse cx="440" cy="430" rx="16" ry="10" />
    <ellipse cx="860" cy="360" rx="18" ry="12" />
    <ellipse cx="1060" cy="380" rx="14" ry="10" />
  </g>

  <g fill="#d9aa58" stroke="#805a1c" stroke-width="4">
    <rect x="190" y="240" width="52" height="42" rx="10" />
    <rect x="870" y="300" width="56" height="46" rx="12" />
    <rect x="640" y="420" width="48" height="38" rx="10" />
  </g>

  <g fill="#2f4f14" opacity="0.6">
    <circle cx="220" cy="210" r="4" />
    <circle cx="350" cy="190" r="3.5" />
    <circle cx="760" cy="230" r="3.5" />
    <circle cx="1020" cy="300" r="4" />
    <circle cx="840" cy="520" r="3.5" />
    <circle cx="520" cy="520" r="4" />
  </g>
</svg>
